<svg width="96" height="96" viewBox="0 0 96 96" fill="none" xmlns="http://www.w3.org/2000/svg">
  <defs>
    <linearGradient id="timeCapsuleGradient" x1="0%" y1="0%" x2="100%" y2="100%">
      <stop offset="0%" style="stop-color:#8B5CF6;stop-opacity:1" />
      <stop offset="100%" style="stop-color:#3B82F6;stop-opacity:1" />
    </linearGradient>
  </defs>
  <!-- Capsule shape -->
  <path d="M24 36 C24 30, 30 24, 36 24 L60 24 C66 24, 72 30, 72 36 L72 60 C72 66, 66 72, 60 72 L36 72 C30 72, 24 66, 24 60 Z" 
        stroke="url(#timeCapsuleGradient)" 
        stroke-width="4" 
        stroke-linecap="round" 
        stroke-linejoin="round" 
        fill="none"/>
  <!-- Handle/top -->
  <path d="M36 24 C36 20, 40 16, 48 16 C56 16, 60 20, 60 24" 
        stroke="url(#timeCapsuleGradient)" 
        stroke-width="4" 
        stroke-linecap="round" 
        stroke-linejoin="round" 
        fill="none"/>
  <!-- Divider line -->
  <line x1="24" y1="48" x2="72" y2="48" stroke="url(#timeCapsuleGradient)" stroke-width="2"/>
  <!-- Star/sparkle -->
  <path d="M48 36 L50 42 L56 42 L51 46 L53 52 L48 48 L43 52 L45 46 L40 42 L46 42 Z" 
        fill="url(#timeCapsuleGradient)"/>
</svg>
